# xmcd
#
# Track frame offsets:
#	150
#	14694
#	30709
#	44312
#	59419
#	75911
#	92616
#	110372
#	126987
#	144773
#	159335
#
# Disc length: 2890 seconds
#
# Revision: 1
# Processed by: cddbd v1.5.2PL0 Copyright (c) Steve Scherf et al.
# Submitted via: audiograbber 1.83.01
#
DISCID=820b480b
DTITLE=Petteri Sariola - Phases
DYEAR=2009
DGENRE=Acoustic
TTITLE0=Distorted
TTITLE1=The Release
TTITLE2=Army of Clowns
TTITLE3=I See You Everywhere
TTITLE4=Last Summer
TTITLE5=Here Comes Fat Bob
TTITLE6=´84
TTITLE7=Sailing
TTITLE8=Until We Meet
TTITLE9=Odysseus
TTITLE10=Sleep and Smile
EXTD=
EXTT0=
EXTT1=
EXTT2=
EXTT3=
EXTT4=
EXTT5=
EXTT6=
EXTT7=
EXTT8=
EXTT9=
EXTT10=
PLAYORDER=
